<?xml version="1.0" encoding="UTF-8"?>
<svg width="167px" height="60px" viewBox="0 0 167 60" version="1.1" xmlns="http://www.w3.org/2000/svg" xmlns:xlink="http://www.w3.org/1999/xlink">
    <!-- Generator: Sketch 54.1 (76490) - https://sketchapp.com -->
    <title>Brand</title>
    <desc>Created with Sketch.</desc>
    <g id="Brand" stroke="none" stroke-width="1" fill="none" fill-rule="evenodd">
        <path d="M0,38 L9.65291615,17 L19.3189655,38 L14.7092056,38 L13.2776847,34.8723404 L6.02814764,34.8723404 L4.59662674,38 L0,38 Z M7.9137931,31.2258065 L11.637931,31.2258065 L9.78844362,26.9354839 L7.9137931,31.2258065 Z M36.5431034,34.9450003 C34.8016401,36.6279897 32.218481,38 28.9088819,38 C25.9429473,37.9914384 23.4113735,36.9731051 21.3141606,34.9449878 C19.2081685,32.891198 18.1551724,30.4180887 18.1551724,27.5256724 C18.1551724,24.6418051 19.2081685,22.1644212 21.3141606,20.0935208 C23.428932,18.0311694 25.9605058,17 28.9088948,17 L28.8957323,17.0513573 C32.1721686,17.0513573 34.7766725,18.470456 36.5299539,20.1192057 L33.4894277,23.0843646 C32.2082868,21.8520908 30.6858257,21.2359539 28.9220572,21.2359539 C27.1319639,21.2359539 25.6138989,21.8520908 24.3678492,23.0843646 C23.1042539,24.3337492 22.4724563,25.8184722 22.4724563,27.5385211 C22.4724563,29.2756807 23.1042539,30.7604037 24.3678492,31.9926776 C25.6226653,33.2163898 27.1407303,33.8282521 28.9220444,33.8282521 C30.7121377,33.8282521 32.238982,33.2121152 33.5025773,31.9798414 L36.5431034,34.9450003 Z M38.4051724,17 L42.6559144,17 L42.6559144,25.4026055 L49.749258,25.4026055 L49.749258,17 L54,17 L54,38 L49.749258,38 L49.749258,29.5843672 L42.6559144,29.5843672 L42.6559144,38 L38.4051724,38 L38.4051724,17 Z" id="ACH" fill="#17BEBB" fill-rule="nonzero"></path>
        <path d="M114.450658,34.9450003 C112.703254,36.6279897 110.111283,38 106.790394,38 C103.814341,37.9914384 101.274132,36.9731051 99.1697645,34.9449878 C97.0565882,32.891198 96,30.4180887 96,27.5256724 C96,24.6418051 97.0565882,22.1644212 99.1697645,20.0935208 C101.29175,18.0311694 103.83196,17 106.790407,17 L106.777199,17.0513573 C110.064812,17.0513573 112.678201,18.470456 114.437463,20.1192057 L111.386565,23.0843646 C110.101054,21.8520908 108.573399,21.2359539 106.803614,21.2359539 C105.007414,21.2359539 103.48417,21.8520908 102.23387,23.0843646 C100.965964,24.3337492 100.332011,25.8184722 100.332011,27.5385211 C100.332011,29.2756807 100.965964,30.7604037 102.23387,31.9926776 C103.492967,33.2163898 105.01621,33.8282521 106.803601,33.8282521 C108.599801,33.8282521 110.131854,33.2121152 111.39976,31.9798414 L114.450658,34.9450003 Z M115.151316,38 L124.720464,17 L134.302632,38 L129.732875,38 L128.313777,34.8723404 L121.127151,34.8723404 L119.708053,38 L115.151316,38 Z M122.858553,31.2258065 L126.595395,31.2258065 L124.739598,26.9354839 L122.858553,31.2258065 Z M140.803402,33.7949857 L140.78405,33.7761852 C141.964488,33.7761852 143.267504,32.8236311 143.267504,31.6768136 C143.267504,29.7905058 140.661498,29.5273114 139.190773,29.0322276 C136.597678,28.1736885 134.307754,26.1056343 134.307754,23.2918565 C134.307754,19.8075194 137.216917,17 140.803402,17 C144.073805,17 146.783011,19.3563201 147.221657,22.4207753 L142.977216,23.2918565 C142.977216,22.1575684 141.996737,21.2050143 140.829196,21.2050143 C139.642316,21.2050143 138.661836,22.1575684 138.661836,23.3043859 C138.661836,25.1656222 141.087235,25.6606935 142.564389,26.0868463 C145.247801,26.8388535 147.615132,28.8254222 147.615132,31.7018725 C147.615132,35.1862096 144.396341,38 140.816312,38 C137.526544,38 134.55287,35.6562219 134.069079,32.5792247 L138.313507,31.7018725 C138.313507,32.8549736 139.603612,33.7949857 140.803402,33.7949857 Z M147.848684,38 L157.417832,17 L167,38 L162.430243,38 L161.011145,34.8723404 L153.82452,34.8723404 L152.405421,38 L147.848684,38 Z M155.322368,31.2258065 L159.059211,31.2258065 L157.203414,26.9354839 L155.322368,31.2258065 Z" id="CASA" fill="#FFC914" fill-rule="nonzero"></path>
        <g id="Group" transform="translate(64.000000, 17.000000)" fill="#17BEBB">
            <polygon id="Rectangle" points="5.43294832 17.3576642 16.4849575 17.3576642 17.1348788 23.919708 4.78302699 23.919708"></polygon>
            <rect id="Rectangle" x="14.5793233" y="4.23357664" width="2.76851852" height="11.0072993"></rect>
            <path d="M1.58858255,21.1678832 L11.165401,0 L20.7552492,21.1678832 L16.1818298,21.1678832 L14.7615941,18.0152198 L7.56920797,18.0152198 L6.1489723,21.1678832 L1.58858255,21.1678832 Z" id="A" fill-rule="nonzero"></path>
        </g>
        <path d="M56.0258065,29.97719 C56.0258065,24.6028062 58.2085627,19.7372148 61.7376021,16.2152193 C65.2666416,12.6932239 70.1419642,10.5148244 75.5270968,10.5148244 C80.9122294,10.5148244 85.787552,12.6932239 89.3165914,16.2152193 C92.8456308,19.7372148 95.0283871,24.6028062 95.0283871,29.97719 C95.0283871,35.3515739 92.8456308,40.2171653 89.3165914,43.7391607 C85.787552,47.2611561 80.9122294,49.4395556 75.5270968,49.4395556 C70.1419642,49.4395556 65.2666416,47.2611561 61.7376021,43.7391607 C58.2085627,40.2171653 56.0258065,35.3515739 56.0258065,29.97719 Z M86.6963694,41.1241687 C83.8562589,43.9586102 79.9326829,45.7117488 75.5988204,45.7117488 C71.2649579,45.7117488 67.3413819,43.9586102 64.5012714,41.1241687 C61.661161,38.2897271 59.9045161,34.3739825 59.9045161,30.0487705 C59.9045161,25.7235585 61.661161,21.8078139 64.5012714,18.9733723 C67.3413819,16.1389307 71.2649579,14.3857922 75.5988204,14.3857922 C79.9326829,14.3857922 83.8562589,16.1389307 86.6963694,18.9733723 C89.5364798,21.8078139 91.2931247,25.7235585 91.2931247,30.0487705 C91.2931247,34.3739825 89.5364798,38.2897271 86.6963694,41.1241687 Z" id="Combined-Shape" fill="#1B1B1B" transform="translate(75.527097, 29.977190) rotate(28.000000) translate(-75.527097, -29.977190) "></path>
        <polygon id="Rectangle" fill="#1B1B1B" transform="translate(97.981621, 42.841342) rotate(28.000000) translate(-97.981621, -42.841342) " points="89.6917264 39.728552 106.276685 39.7148239 106.271515 45.9541321 89.686556 45.9678603"></polygon>
    </g>
</svg>